<svg viewBox="185.0167289088864 245.52072 1555.0056242969629 613.4399999999999" xmlns:xlink="http://www.w3.org/1999/xlink" xmlns="http://www.w3.org/2000/svg" style="max-height: 500px" width="1555.0056242969629" height="613.4399999999999">
  <defs>
    <style>
      .cls-1 {
        fill: none;
        stroke: #001b57;
      }

      .cls-2 {
        fill: url(#linear-gradient-2);
      }

      .cls-3 {
        fill: url(#linear-gradient-4);
      }

      .cls-4 {
        fill: url(#linear-gradient-3);
      }

      .cls-5 {
        fill: url(#linear-gradient-5);
      }

      .cls-6 {
        fill: #0094c6;
      }

      .cls-7 {
        fill: url(#linear-gradient-8);
      }

      .cls-8 {
        fill: #001b57;
      }

      .cls-9 {
        fill: url(#linear-gradient-7);
      }

      .cls-10 {
        fill: url(#linear-gradient-9);
      }

      .cls-11 {
        fill: url(#linear-gradient-6);
      }

      .cls-12 {
        fill: url(#linear-gradient);
      }
    </style>
    <linearGradient gradientUnits="userSpaceOnUse" y2="540.75" x2="440.2" y1="372.86" x1="440.2" id="linear-gradient">
      <stop stop-color="#001b57" offset=".03"/>
      <stop stop-color="#00ddc6" offset=".54"/>
      <stop stop-color="#87ff86" offset="1"/>
    </linearGradient>
    <linearGradient xlink:href="#linear-gradient" y2="521.77" x2="598.94" y1="346.7" x1="598.94" id="linear-gradient-2"/>
    <linearGradient xlink:href="#linear-gradient" y2="513.51" x2="700.67" y1="346.7" x1="700.67" id="linear-gradient-3"/>
    <linearGradient xlink:href="#linear-gradient" y2="512.52" x2="856.39" y1="375.56" x1="856.39" id="linear-gradient-4"/>
    <linearGradient gradientUnits="userSpaceOnUse" y2="599.53" x2="906.19" y1="526.97" x1="906.19" id="linear-gradient-5">
      <stop stop-color="#00ddc6" offset="0"/>
      <stop stop-color="#87ff86" offset="1"/>
    </linearGradient>
    <linearGradient xlink:href="#linear-gradient-5" y2="592.29" x2="826.14" y1="558.12" x1="826.14" id="linear-gradient-6"/>
    <linearGradient gradientUnits="userSpaceOnUse" y2="599.7" x2="1060.03" y1="420.46" x1="1060.03" id="linear-gradient-7">
      <stop stop-color="#001b57" offset=".03"/>
      <stop stop-color="#00d1bf" offset=".51"/>
      <stop stop-color="#00ddc6" offset=".54"/>
      <stop stop-color="#87ff86" offset="1"/>
    </linearGradient>
    <linearGradient xlink:href="#linear-gradient" y2="592.55" x2="1268.91" y1="455.67" x1="1268.91" id="linear-gradient-8"/>
    <linearGradient xlink:href="#linear-gradient" y2="576.83" x2="1478.92" y1="437.95" x1="1478.92" id="linear-gradient-9"/>
  </defs>
  <g id="Layer_1">
    <g>
      <g>
        <g>
          <path d="M499.08,641.48c-27.03,0-43.48-15.24-45.14-41.81l-1.23-19.21c-.38-4.53-2.52-6.83-6.36-6.83h-10.22c-4.31,0-6.4,1.99-6.77,6.44l-1.23,19.6c-1.66,26.96-17.69,41.81-45.14,41.81h-8.18c-13.31,0-23.25-3.55-29.54-10.55-6.41-7.13-8.9-17.71-7.43-31.43l15.12-141.02c3.1-29.45,10.95-51.01,24-65.9,14.69-16.77,35.64-24.92,64.06-24.92s49.37,8.15,64.06,24.92c13.05,14.89,20.9,36.45,24,65.9l15.12,141.02c1.48,13.72-1.02,24.3-7.43,31.43-6.29,7-16.23,10.55-29.54,10.55h-8.17ZM440.63,448.96c-2.48,0-3.93,2.17-4.32,6.45l-2.86,46.57c-.16,1.75.29,3.24,1.3,4.34,1.15,1.26,2.94,1.95,5.06,1.95h2.45c2.11,0,3.91-.69,5.06-1.95,1.01-1.11,1.46-2.6,1.31-4.32l-2.86-46.63c-.49-5.32-2.08-6.42-4.31-6.42h-.82Z" class="cls-8"/>
          <path d="M441.04,368.66c58.45,0,81.34,35.56,87.07,89.93l15.12,141.02c2.86,26.57-9.4,40.87-35.97,40.87h-8.17c-26.57,0-42.51-14.71-44.15-40.87l-1.23-19.21c-.41-4.91-2.86-7.77-7.36-7.77h-10.22c-4.91,0-7.36,2.45-7.76,7.35l-1.23,19.62c-1.63,26.57-17.58,40.87-44.14,40.87h-8.18c-26.57,0-38.83-14.31-35.97-40.87l15.12-141.02c5.72-54.36,28.61-89.93,87.06-89.93M439.81,509.27h2.45c4.5,0,7.77-2.86,7.36-7.36l-2.86-46.6c-.41-4.5-1.64-7.36-5.31-7.36h-.82c-3.27,0-4.91,2.86-5.31,7.36l-2.86,46.6c-.41,4.5,2.86,7.36,7.36,7.36M441.04,366.66c-28.72,0-49.92,8.26-64.81,25.26-13.19,15.05-21.12,36.79-24.24,66.46l-15.12,141.01c-1.51,14.02,1.07,24.85,7.68,32.21,6.48,7.22,16.67,10.88,30.28,10.88h8.18c13.8,0,24.83-3.7,32.77-11,8.03-7.37,12.52-18.05,13.36-31.75l1.23-19.62c.32-3.88,2-5.48,5.77-5.48h10.22c2.09,0,4.92.62,5.37,5.93l1.22,19.17c1.7,27.16,18.52,42.75,46.14,42.75h8.17c13.61,0,23.8-3.66,30.28-10.88,6.6-7.35,9.19-18.19,7.68-32.21l-15.12-141.02c-3.12-29.66-11.05-51.4-24.24-66.45-14.89-17-36.09-25.26-64.81-25.26h0ZM437.31,455.47c.51-5.51,2.62-5.51,3.32-5.51h.82c1.48,0,2.85.42,3.32,5.51l2.86,46.57v.03s0,.03,0,.03c.13,1.43-.23,2.66-1.05,3.55-.96,1.05-2.49,1.62-4.32,1.62h-2.45c-1.83,0-3.36-.58-4.32-1.62-.82-.89-1.18-2.12-1.05-3.55v-.03s0-.03,0-.03l2.86-46.57h0Z" class="cls-8"/>
        </g>
        <g>
          <path d="M646.33,615.73c-29.36,0-52.1-7.85-67.59-23.34s-23.34-38.23-23.34-67.59v-141.43c0-27,14.87-41.88,41.88-41.88h3.68c27,0,41.87,14.87,41.87,41.88v143.88c0,3.92,2.44,6.36,6.36,6.36h1.23c3.92,0,6.36-2.44,6.36-6.36v-143.88c0-27,14.87-41.88,41.88-41.88h4.09c27,0,41.87,14.87,41.87,41.88v141.43c0,29.36-7.85,52.1-23.34,67.59-15.48,15.49-38.23,23.34-67.59,23.34h-7.36Z" class="cls-8"/>
          <path d="M702.74,342.5c26.57,0,40.87,14.31,40.87,40.88v141.43c0,58.45-31.47,89.93-89.92,89.93h-7.36c-58.45,0-89.93-31.48-89.93-89.93v-141.43c0-26.57,14.31-40.88,40.88-40.88h3.68c26.57,0,40.87,14.31,40.87,40.88v143.88c0,4.5,2.86,7.36,7.36,7.36h1.23c4.5,0,7.36-2.86,7.36-7.36v-143.88c0-26.57,14.31-40.88,40.88-40.88h4.09M702.74,340.5h-4.09c-27.65,0-42.88,15.23-42.88,42.88v143.88c0,3.41-1.95,5.36-5.36,5.36h-1.23c-3.41,0-5.36-1.95-5.36-5.36v-143.88c0-27.65-15.23-42.88-42.87-42.88h-3.68c-27.65,0-42.88,15.23-42.88,42.88v141.43c0,29.64,7.95,52.62,23.63,68.3,15.68,15.68,38.66,23.63,68.3,23.63h7.36c29.64,0,52.62-7.95,68.3-23.63,15.68-15.68,23.63-38.66,23.63-68.3v-141.43c0-27.65-15.23-42.88-42.87-42.88h0Z" class="cls-8"/>
        </g>
        <g>
          <path d="M905.02,639.03c-27,0-41.87-14.87-41.87-41.87v-38.83c0-3.92-2.44-6.36-6.36-6.36h-1.22c-3.92,0-6.36,2.44-6.36,6.36v38.83c0,27-14.87,41.87-41.87,41.87h-3.68c-27,0-41.88-14.87-41.88-41.87v-185.17c0-27,14.87-41.87,41.88-41.87h56.41c62.03,0,90.93,26.29,90.93,82.75v3.68c0,33.25-3.82,51.81-24.71,61-2.17,1-3.47,2.38-3.44,3.66.02,1.17,1.12,2.29,3.01,3.08,23.22,9.64,25.14,29.33,25.14,50.38v22.48c0,27-14.87,41.87-41.88,41.87h-4.09ZM855.56,452.23c-3.92,0-6.36,2.44-6.36,6.36v26.16c0,3.92,2.44,6.36,6.36,6.36h1.22c3.92,0,6.36-2.44,6.36-6.36v-26.16c0-3.92-2.44-6.36-6.36-6.36h-1.22Z" class="cls-8"/>
          <path d="M860.06,371.11c58.45,0,89.93,23.3,89.93,81.75v3.68c0,32.7-3.68,51.09-24.12,60.08-5.32,2.45-5.32,6.54-.41,8.58,21.66,8.99,24.53,26.98,24.53,49.46v22.48c0,26.57-14.31,40.87-40.88,40.87h-4.09c-26.57,0-40.87-14.31-40.87-40.87v-38.83c0-4.5-2.86-7.36-7.36-7.36h-1.22c-4.5,0-7.36,2.86-7.36,7.36v38.83c0,26.57-14.31,40.87-40.87,40.87h-3.68c-26.57,0-40.88-14.31-40.88-40.87v-185.17c0-26.57,14.31-40.87,40.88-40.87h56.41M855.56,492.1h1.22c4.5,0,7.36-2.86,7.36-7.36v-26.16c0-4.5-2.86-7.36-7.36-7.36h-1.22c-4.5,0-7.36,2.86-7.36,7.36v26.16c0,4.5,2.86,7.36,7.36,7.36M860.06,369.11h-56.41c-27.65,0-42.88,15.23-42.88,42.87v185.17c0,27.65,15.23,42.87,42.88,42.87h3.68c27.65,0,42.87-15.23,42.87-42.87v-38.83c0-3.41,1.95-5.36,5.36-5.36h1.22c3.41,0,5.36,1.95,5.36,5.36v38.83c0,27.65,15.23,42.87,42.87,42.87h4.09c27.65,0,42.88-15.23,42.88-42.87v-22.48c0-20.55-1.99-41.44-25.76-51.31-1.46-.61-2.38-1.44-2.39-2.18-.01-.65.73-1.75,2.88-2.74,10.39-4.57,17-11.66,20.77-22.3,3.2-9.04,4.51-20.52,4.51-39.6v-3.68c0-29.45-7.76-50.49-23.74-64.31-15.12-13.08-37.43-19.44-68.19-19.44h0ZM855.56,490.1c-3.41,0-5.36-1.95-5.36-5.36v-26.16c0-3.41,1.95-5.36,5.36-5.36h1.22c3.41,0,5.36,1.95,5.36,5.36v26.16c0,3.4-1.95,5.36-5.36,5.36h-1.22Z" class="cls-8"/>
        </g>
        <g>
          <path d="M1056.36,688.69c-29.36,0-52.1-7.85-67.59-23.33-15.49-15.48-23.34-38.22-23.34-67.59v-91.97c0-29.36,7.85-52.1,23.34-67.59s38.23-23.34,67.59-23.34h7.35c29.36,0,52.1,7.85,67.59,23.34s23.34,38.23,23.34,67.59v91.97c0,29.36-7.85,52.1-23.34,67.59-15.49,15.48-38.23,23.33-67.59,23.33h-7.35ZM1067.39,514.53c-3.92,0-6.36,2.44-6.36,6.36v96.88c0,3.92,2.44,6.36,6.36,6.36h1.23c3.92,0,6.36-2.44,6.36-6.36v-96.88c0-3.92-2.44-6.36-6.36-6.36h-1.23Z" class="cls-8"/>
          <path d="M1063.71,415.87c58.45,0,89.93,31.48,89.93,89.93v91.97c0,58.45-31.48,89.92-89.93,89.92h-7.35c-58.45,0-89.93-31.47-89.93-89.92v-91.97c0-58.45,31.48-89.93,89.93-89.93h7.35M1067.39,625.13h1.23c4.5,0,7.35-2.86,7.35-7.36v-96.88c0-4.5-2.86-7.36-7.35-7.36h-1.23c-4.5,0-7.36,2.86-7.36,7.36v96.88c0,4.5,2.86,7.36,7.36,7.36M1063.71,413.87h-7.35c-29.64,0-52.62,7.95-68.3,23.63-15.68,15.68-23.63,38.66-23.63,68.3v91.97c0,29.64,7.95,52.62,23.63,68.29,15.68,15.68,38.66,23.63,68.3,23.63h7.35c29.64,0,52.62-7.95,68.3-23.63,15.68-15.68,23.63-38.66,23.63-68.29v-91.97c0-29.64-7.95-52.62-23.63-68.3-15.68-15.68-38.66-23.63-68.3-23.63h0ZM1067.39,623.13c-3.41,0-5.36-1.95-5.36-5.36v-96.88c0-3.4,1.95-5.36,5.36-5.36h1.23c3.4,0,5.35,1.95,5.35,5.36v96.88c0,3.41-1.95,5.36-5.35,5.36h-1.23Z" class="cls-8"/>
        </g>
        <g>
          <path d="M1317.55,719.14c-27,0-41.87-14.87-41.87-41.87v-38.83c0-3.92-2.44-6.36-6.36-6.36h-1.22c-3.92,0-6.36,2.44-6.36,6.36v38.83c0,27-14.87,41.87-41.87,41.87h-3.68c-27,0-41.87-14.87-41.87-41.87v-185.17c0-27,14.87-41.87,41.87-41.87h56.41c62.03,0,90.93,26.29,90.93,82.75v3.68c0,33.25-3.82,51.81-24.71,61-2.17,1-3.47,2.38-3.44,3.66.02,1.17,1.12,2.29,3.02,3.08,23.22,9.64,25.14,29.33,25.14,50.38v22.48c0,27-14.87,41.87-41.88,41.87h-4.09ZM1268.09,532.34c-3.92,0-6.36,2.44-6.36,6.36v26.16c0,3.92,2.44,6.36,6.36,6.36h1.22c3.92,0,6.36-2.44,6.36-6.36v-26.16c0-3.92-2.44-6.36-6.36-6.36h-1.22Z" class="cls-8"/>
          <path d="M1272.59,451.23c58.45,0,89.93,23.3,89.93,81.75v3.68c0,32.7-3.68,51.09-24.12,60.08-5.32,2.45-5.32,6.54-.41,8.58,21.66,8.99,24.52,26.98,24.52,49.46v22.48c0,26.57-14.31,40.87-40.88,40.87h-4.09c-26.57,0-40.87-14.31-40.87-40.87v-38.83c0-4.5-2.86-7.36-7.36-7.36h-1.22c-4.5,0-7.36,2.86-7.36,7.36v38.83c0,26.57-14.31,40.87-40.87,40.87h-3.68c-26.57,0-40.87-14.31-40.87-40.87v-185.17c0-26.57,14.31-40.87,40.87-40.87h56.41M1268.09,572.22h1.22c4.5,0,7.36-2.86,7.36-7.36v-26.16c0-4.5-2.86-7.36-7.36-7.36h-1.22c-4.5,0-7.36,2.86-7.36,7.36v26.16c0,4.5,2.86,7.36,7.36,7.36M1272.59,449.23h-56.41c-27.65,0-42.87,15.23-42.87,42.87v185.17c0,27.65,15.23,42.87,42.87,42.87h3.68c27.65,0,42.87-15.23,42.87-42.87v-38.83c0-3.41,1.95-5.36,5.36-5.36h1.22c3.41,0,5.36,1.95,5.36,5.36v38.83c0,27.65,15.23,42.87,42.87,42.87h4.09c27.65,0,42.88-15.23,42.88-42.87v-22.48c0-20.55-1.99-41.44-25.76-51.31-1.46-.61-2.38-1.45-2.4-2.18-.01-.65.73-1.75,2.88-2.74,10.39-4.57,17-11.66,20.77-22.3,3.2-9.04,4.51-20.52,4.51-39.6v-3.68c0-29.45-7.76-50.49-23.74-64.31-15.12-13.08-37.43-19.44-68.19-19.44h0ZM1268.09,570.22c-3.41,0-5.36-1.95-5.36-5.36v-26.16c0-3.41,1.95-5.36,5.36-5.36h1.22c3.41,0,5.36,1.95,5.36,5.36v26.16c0,3.4-1.95,5.36-5.36,5.36h-1.22Z" class="cls-8"/>
        </g>
        <g>
          <path d="M1537.91,706.24c-27.03,0-43.48-15.24-45.14-41.81l-1.22-19.21c-.38-4.53-2.52-6.83-6.36-6.83h-10.22c-4.31,0-6.4,1.99-6.77,6.44l-1.22,19.6c-1.66,26.96-17.69,41.81-45.14,41.81h-8.17c-13.32,0-23.26-3.55-29.54-10.55-6.4-7.13-8.9-17.71-7.42-31.43l15.12-141.02c3.1-29.45,10.95-51.01,24-65.9,14.69-16.77,35.65-24.92,64.06-24.92s49.37,8.15,64.06,24.92c13.05,14.89,20.9,36.45,24,65.9l15.12,141.02c1.48,13.72-1.02,24.3-7.42,31.43-6.29,7-16.23,10.55-29.54,10.55h-8.17ZM1479.46,513.72c-2.48,0-3.93,2.17-4.32,6.45l-2.86,46.57c-.16,1.75.29,3.24,1.3,4.34,1.15,1.26,2.94,1.95,5.06,1.95h2.45c2.11,0,3.91-.69,5.06-1.95,1.01-1.11,1.46-2.6,1.31-4.32l-2.87-46.63c-.48-5.32-2.07-6.42-4.31-6.42h-.82Z" class="cls-8"/>
          <path d="M1479.87,433.42c58.45,0,81.34,35.56,87.06,89.93l15.12,141.02c2.86,26.57-9.4,40.87-35.97,40.87h-8.17c-26.57,0-42.51-14.71-44.15-40.87l-1.22-19.21c-.41-4.91-2.86-7.77-7.36-7.77h-10.22c-4.9,0-7.35,2.45-7.77,7.35l-1.22,19.62c-1.64,26.57-17.58,40.87-44.15,40.87h-8.17c-26.57,0-38.83-14.31-35.97-40.87l15.12-141.02c5.72-54.36,28.62-89.93,87.07-89.93M1478.64,574.03h2.45c4.5,0,7.77-2.86,7.36-7.36l-2.86-46.6c-.41-4.5-1.63-7.36-5.31-7.36h-.82c-3.27,0-4.9,2.86-5.31,7.36l-2.86,46.6c-.41,4.5,2.86,7.36,7.36,7.36M1479.87,431.42c-28.72,0-49.92,8.26-64.81,25.26-13.19,15.05-21.12,36.79-24.25,66.46l-15.12,141.01c-1.51,14.02,1.07,24.85,7.67,32.2,6.48,7.22,16.67,10.88,30.29,10.88h8.17c13.8,0,24.83-3.7,32.78-11,8.03-7.37,12.52-18.05,13.37-31.75l1.22-19.62c.33-3.88,2-5.48,5.77-5.48h10.22c2.09,0,4.92.61,5.37,5.93l1.22,19.17c1.7,27.17,18.52,42.75,46.14,42.75h8.17c13.61,0,23.8-3.66,30.29-10.88,6.6-7.35,9.18-18.19,7.67-32.2l-15.12-141.02c-3.12-29.66-11.05-51.4-24.24-66.45-14.89-17-36.09-25.26-64.81-25.26h0ZM1476.14,520.23c.51-5.51,2.62-5.51,3.32-5.51h.82c1.19,0,2.81,0,3.32,5.51l2.86,46.57v.03s0,.03,0,.03c.13,1.43-.23,2.66-1.05,3.55-.96,1.05-2.49,1.62-4.32,1.62h-2.45c-1.83,0-3.36-.58-4.32-1.62-.82-.89-1.18-2.12-1.05-3.55v-.03s0-.03,0-.03l2.86-46.57h0Z" class="cls-8"/>
        </g>
      </g>
      <g>
        <g>
          <path d="M499.08,641.48c-27.03,0-43.48-15.24-45.14-41.81l-1.23-19.21c-.38-4.53-2.52-6.83-6.36-6.83h-10.22c-4.31,0-6.4,1.99-6.77,6.44l-1.23,19.6c-1.66,26.96-17.69,41.81-45.14,41.81h-8.18c-13.31,0-23.25-3.55-29.54-10.55-6.41-7.13-8.9-17.71-7.43-31.43l15.12-141.02c3.1-29.45,10.95-51.01,24-65.9,14.69-16.77,35.64-24.92,64.06-24.92s49.37,8.15,64.06,24.92c13.05,14.89,20.9,36.45,24,65.9l15.12,141.02c1.48,13.72-1.02,24.3-7.43,31.43-6.29,7-16.23,10.55-29.54,10.55h-8.17ZM440.63,448.96c-2.48,0-3.93,2.17-4.32,6.45l-2.86,46.57c-.16,1.75.29,3.24,1.3,4.34,1.15,1.26,2.94,1.95,5.06,1.95h2.45c2.11,0,3.91-.69,5.06-1.95,1.01-1.11,1.46-2.6,1.31-4.32l-2.86-46.63c-.49-5.32-2.08-6.42-4.31-6.42h-.82Z" class="cls-1"/>
          <path d="M441.04,368.66c58.45,0,81.34,35.56,87.07,89.93l15.12,141.02c2.86,26.57-9.4,40.87-35.97,40.87h-8.17c-26.57,0-42.51-14.71-44.15-40.87l-1.23-19.21c-.41-4.91-2.86-7.77-7.36-7.77h-10.22c-4.91,0-7.36,2.45-7.76,7.35l-1.23,19.62c-1.63,26.57-17.58,40.87-44.14,40.87h-8.18c-26.57,0-38.83-14.31-35.97-40.87l15.12-141.02c5.72-54.36,28.61-89.93,87.06-89.93M439.81,509.27h2.45c4.5,0,7.77-2.86,7.36-7.36l-2.86-46.6c-.41-4.5-1.64-7.36-5.31-7.36h-.82c-3.27,0-4.91,2.86-5.31,7.36l-2.86,46.6c-.41,4.5,2.86,7.36,7.36,7.36M441.04,366.66c-28.72,0-49.92,8.26-64.81,25.26-13.19,15.05-21.12,36.79-24.24,66.46l-15.12,141.01c-1.51,14.02,1.07,24.85,7.68,32.21,6.48,7.22,16.67,10.88,30.28,10.88h8.18c13.8,0,24.83-3.7,32.77-11,8.03-7.37,12.52-18.05,13.36-31.75l1.23-19.62c.32-3.88,2-5.48,5.77-5.48h10.22c2.09,0,4.92.62,5.37,5.93l1.22,19.17c1.7,27.16,18.52,42.75,46.14,42.75h8.17c13.61,0,23.8-3.66,30.28-10.88,6.6-7.35,9.19-18.19,7.68-32.21l-15.12-141.02c-3.12-29.66-11.05-51.4-24.24-66.45-14.89-17-36.09-25.26-64.81-25.26h0ZM437.31,455.47c.51-5.51,2.62-5.51,3.32-5.51h.82c1.48,0,2.85.42,3.32,5.51l2.86,46.57v.03s0,.03,0,.03c.13,1.43-.23,2.66-1.05,3.55-.96,1.05-2.49,1.62-4.32,1.62h-2.45c-1.83,0-3.36-.58-4.32-1.62-.82-.89-1.18-2.12-1.05-3.55v-.03s0-.03,0-.03l2.86-46.57h0Z" class="cls-1"/>
        </g>
        <g>
          <path d="M646.33,615.73c-29.36,0-52.1-7.85-67.59-23.34s-23.34-38.23-23.34-67.59v-141.43c0-27,14.87-41.88,41.88-41.88h3.68c27,0,41.87,14.87,41.87,41.88v143.88c0,3.92,2.44,6.36,6.36,6.36h1.23c3.92,0,6.36-2.44,6.36-6.36v-143.88c0-27,14.87-41.88,41.88-41.88h4.09c27,0,41.87,14.87,41.87,41.88v141.43c0,29.36-7.85,52.1-23.34,67.59-15.48,15.49-38.23,23.34-67.59,23.34h-7.36Z" class="cls-1"/>
          <path d="M702.74,342.5c26.57,0,40.87,14.31,40.87,40.88v141.43c0,58.45-31.47,89.93-89.92,89.93h-7.36c-58.45,0-89.93-31.48-89.93-89.93v-141.43c0-26.57,14.31-40.88,40.88-40.88h3.68c26.57,0,40.87,14.31,40.87,40.88v143.88c0,4.5,2.86,7.36,7.36,7.36h1.23c4.5,0,7.36-2.86,7.36-7.36v-143.88c0-26.57,14.31-40.88,40.88-40.88h4.09M702.74,340.5h-4.09c-27.65,0-42.88,15.23-42.88,42.88v143.88c0,3.41-1.95,5.36-5.36,5.36h-1.23c-3.41,0-5.36-1.95-5.36-5.36v-143.88c0-27.65-15.23-42.88-42.87-42.88h-3.68c-27.65,0-42.88,15.23-42.88,42.88v141.43c0,29.64,7.95,52.62,23.63,68.3,15.68,15.68,38.66,23.63,68.3,23.63h7.36c29.64,0,52.62-7.95,68.3-23.63,15.68-15.68,23.63-38.66,23.63-68.3v-141.43c0-27.65-15.23-42.88-42.87-42.88h0Z" class="cls-1"/>
        </g>
        <g>
          <path d="M905.02,639.03c-27,0-41.87-14.87-41.87-41.87v-38.83c0-3.92-2.44-6.36-6.36-6.36h-1.22c-3.92,0-6.36,2.44-6.36,6.36v38.83c0,27-14.87,41.87-41.87,41.87h-3.68c-27,0-41.88-14.87-41.88-41.87v-185.17c0-27,14.87-41.87,41.88-41.87h56.41c62.03,0,90.93,26.29,90.93,82.75v3.68c0,33.25-3.82,51.81-24.71,61-2.17,1-3.47,2.38-3.44,3.66.02,1.17,1.12,2.29,3.01,3.08,23.22,9.64,25.14,29.33,25.14,50.38v22.48c0,27-14.87,41.87-41.88,41.87h-4.09ZM855.56,452.23c-3.92,0-6.36,2.44-6.36,6.36v26.16c0,3.92,2.44,6.36,6.36,6.36h1.22c3.92,0,6.36-2.44,6.36-6.36v-26.16c0-3.92-2.44-6.36-6.36-6.36h-1.22Z" class="cls-1"/>
          <path d="M860.06,371.11c58.45,0,89.93,23.3,89.93,81.75v3.68c0,32.7-3.68,51.09-24.12,60.08-5.32,2.45-5.32,6.54-.41,8.58,21.66,8.99,24.53,26.98,24.53,49.46v22.48c0,26.57-14.31,40.87-40.88,40.87h-4.09c-26.57,0-40.87-14.31-40.87-40.87v-38.83c0-4.5-2.86-7.36-7.36-7.36h-1.22c-4.5,0-7.36,2.86-7.36,7.36v38.83c0,26.57-14.31,40.87-40.87,40.87h-3.68c-26.57,0-40.88-14.31-40.88-40.87v-185.17c0-26.57,14.31-40.87,40.88-40.87h56.41M855.56,492.1h1.22c4.5,0,7.36-2.86,7.36-7.36v-26.16c0-4.5-2.86-7.36-7.36-7.36h-1.22c-4.5,0-7.36,2.86-7.36,7.36v26.16c0,4.5,2.86,7.36,7.36,7.36M860.06,369.11h-56.41c-27.65,0-42.88,15.23-42.88,42.87v185.17c0,27.65,15.23,42.87,42.88,42.87h3.68c27.65,0,42.87-15.23,42.87-42.87v-38.83c0-3.41,1.95-5.36,5.36-5.36h1.22c3.41,0,5.36,1.95,5.36,5.36v38.83c0,27.65,15.23,42.87,42.87,42.87h4.09c27.65,0,42.88-15.23,42.88-42.87v-22.48c0-20.55-1.99-41.44-25.76-51.31-1.46-.61-2.38-1.44-2.39-2.18-.01-.65.73-1.75,2.88-2.74,10.39-4.57,17-11.66,20.77-22.3,3.2-9.04,4.51-20.52,4.51-39.6v-3.68c0-29.45-7.76-50.49-23.74-64.31-15.12-13.08-37.43-19.44-68.19-19.44h0ZM855.56,490.1c-3.41,0-5.36-1.95-5.36-5.36v-26.16c0-3.41,1.95-5.36,5.36-5.36h1.22c3.41,0,5.36,1.95,5.36,5.36v26.16c0,3.4-1.95,5.36-5.36,5.36h-1.22Z" class="cls-1"/>
        </g>
        <g>
          <path d="M1056.36,688.69c-29.36,0-52.1-7.85-67.59-23.33-15.49-15.48-23.34-38.22-23.34-67.59v-91.97c0-29.36,7.85-52.1,23.34-67.59s38.23-23.34,67.59-23.34h7.35c29.36,0,52.1,7.85,67.59,23.34s23.34,38.23,23.34,67.59v91.97c0,29.36-7.85,52.1-23.34,67.59-15.49,15.48-38.23,23.33-67.59,23.33h-7.35ZM1067.39,514.53c-3.92,0-6.36,2.44-6.36,6.36v96.88c0,3.92,2.44,6.36,6.36,6.36h1.23c3.92,0,6.36-2.44,6.36-6.36v-96.88c0-3.92-2.44-6.36-6.36-6.36h-1.23Z" class="cls-1"/>
          <path d="M1063.71,415.87c58.45,0,89.93,31.48,89.93,89.93v91.97c0,58.45-31.48,89.92-89.93,89.92h-7.35c-58.45,0-89.93-31.47-89.93-89.92v-91.97c0-58.45,31.48-89.93,89.93-89.93h7.35M1067.39,625.13h1.23c4.5,0,7.35-2.86,7.35-7.36v-96.88c0-4.5-2.86-7.36-7.35-7.36h-1.23c-4.5,0-7.36,2.86-7.36,7.36v96.88c0,4.5,2.86,7.36,7.36,7.36M1063.71,413.87h-7.35c-29.64,0-52.62,7.95-68.3,23.63-15.68,15.68-23.63,38.66-23.63,68.3v91.97c0,29.64,7.95,52.62,23.63,68.29,15.68,15.68,38.66,23.63,68.3,23.63h7.35c29.64,0,52.62-7.95,68.3-23.63,15.68-15.68,23.63-38.66,23.63-68.29v-91.97c0-29.64-7.95-52.62-23.63-68.3-15.68-15.68-38.66-23.63-68.3-23.63h0ZM1067.39,623.13c-3.41,0-5.36-1.95-5.36-5.36v-96.88c0-3.4,1.95-5.36,5.36-5.36h1.23c3.4,0,5.35,1.95,5.35,5.36v96.88c0,3.41-1.95,5.36-5.35,5.36h-1.23Z" class="cls-1"/>
        </g>
        <g>
          <path d="M1317.55,719.14c-27,0-41.87-14.87-41.87-41.87v-38.83c0-3.92-2.44-6.36-6.36-6.36h-1.22c-3.92,0-6.36,2.44-6.36,6.36v38.83c0,27-14.87,41.87-41.87,41.87h-3.68c-27,0-41.87-14.87-41.87-41.87v-185.17c0-27,14.87-41.87,41.87-41.87h56.41c62.03,0,90.93,26.29,90.93,82.75v3.68c0,33.25-3.82,51.81-24.71,61-2.17,1-3.47,2.38-3.44,3.66.02,1.17,1.12,2.29,3.02,3.08,23.22,9.64,25.14,29.33,25.14,50.38v22.48c0,27-14.87,41.87-41.88,41.87h-4.09ZM1268.09,532.34c-3.92,0-6.36,2.44-6.36,6.36v26.16c0,3.92,2.44,6.36,6.36,6.36h1.22c3.92,0,6.36-2.44,6.36-6.36v-26.16c0-3.92-2.44-6.36-6.36-6.36h-1.22Z" class="cls-1"/>
          <path d="M1272.59,451.23c58.45,0,89.93,23.3,89.93,81.75v3.68c0,32.7-3.68,51.09-24.12,60.08-5.32,2.45-5.32,6.54-.41,8.58,21.66,8.99,24.52,26.98,24.52,49.46v22.48c0,26.57-14.31,40.87-40.88,40.87h-4.09c-26.57,0-40.87-14.31-40.87-40.87v-38.83c0-4.5-2.86-7.36-7.36-7.36h-1.22c-4.5,0-7.36,2.86-7.36,7.36v38.83c0,26.57-14.31,40.87-40.87,40.87h-3.68c-26.57,0-40.87-14.31-40.87-40.87v-185.17c0-26.57,14.31-40.87,40.87-40.87h56.41M1268.09,572.22h1.22c4.5,0,7.36-2.86,7.36-7.36v-26.16c0-4.5-2.86-7.36-7.36-7.36h-1.22c-4.5,0-7.36,2.86-7.36,7.36v26.16c0,4.5,2.86,7.36,7.36,7.36M1272.59,449.23h-56.41c-27.65,0-42.87,15.23-42.87,42.87v185.17c0,27.65,15.23,42.87,42.87,42.87h3.68c27.65,0,42.87-15.23,42.87-42.87v-38.83c0-3.41,1.95-5.36,5.36-5.36h1.22c3.41,0,5.36,1.95,5.36,5.36v38.83c0,27.65,15.23,42.87,42.87,42.87h4.09c27.65,0,42.88-15.23,42.88-42.87v-22.48c0-20.55-1.99-41.44-25.76-51.31-1.46-.61-2.38-1.45-2.4-2.18-.01-.65.73-1.75,2.88-2.74,10.39-4.57,17-11.66,20.77-22.3,3.2-9.04,4.51-20.52,4.51-39.6v-3.68c0-29.45-7.76-50.49-23.74-64.31-15.12-13.08-37.43-19.44-68.19-19.44h0ZM1268.09,570.22c-3.41,0-5.36-1.95-5.36-5.36v-26.16c0-3.41,1.95-5.36,5.36-5.36h1.22c3.41,0,5.36,1.95,5.36,5.36v26.16c0,3.4-1.95,5.36-5.36,5.36h-1.22Z" class="cls-1"/>
        </g>
        <g>
          <path d="M1537.91,706.24c-27.03,0-43.48-15.24-45.14-41.81l-1.22-19.21c-.38-4.53-2.52-6.83-6.36-6.83h-10.22c-4.31,0-6.4,1.99-6.77,6.44l-1.22,19.6c-1.66,26.96-17.69,41.81-45.14,41.81h-8.17c-13.32,0-23.26-3.55-29.54-10.55-6.4-7.13-8.9-17.71-7.42-31.43l15.12-141.02c3.1-29.45,10.95-51.01,24-65.9,14.69-16.77,35.65-24.92,64.06-24.92s49.37,8.15,64.06,24.92c13.05,14.89,20.9,36.45,24,65.9l15.12,141.02c1.48,13.72-1.02,24.3-7.42,31.43-6.29,7-16.23,10.55-29.54,10.55h-8.17ZM1479.46,513.72c-2.48,0-3.93,2.17-4.32,6.45l-2.86,46.57c-.16,1.75.29,3.24,1.3,4.34,1.15,1.26,2.94,1.95,5.06,1.95h2.45c2.11,0,3.91-.69,5.06-1.95,1.01-1.11,1.46-2.6,1.31-4.32l-2.87-46.63c-.48-5.32-2.07-6.42-4.31-6.42h-.82Z" class="cls-1"/>
          <path d="M1479.87,433.42c58.45,0,81.34,35.56,87.06,89.93l15.12,141.02c2.86,26.57-9.4,40.87-35.97,40.87h-8.17c-26.57,0-42.51-14.71-44.15-40.87l-1.22-19.21c-.41-4.91-2.86-7.77-7.36-7.77h-10.22c-4.9,0-7.35,2.45-7.77,7.35l-1.22,19.62c-1.64,26.57-17.58,40.87-44.15,40.87h-8.17c-26.57,0-38.83-14.31-35.97-40.87l15.12-141.02c5.72-54.36,28.62-89.93,87.07-89.93M1478.64,574.03h2.45c4.5,0,7.77-2.86,7.36-7.36l-2.86-46.6c-.41-4.5-1.63-7.36-5.31-7.36h-.82c-3.27,0-4.9,2.86-5.31,7.36l-2.86,46.6c-.41,4.5,2.86,7.36,7.36,7.36M1479.87,431.42c-28.72,0-49.92,8.26-64.81,25.26-13.19,15.05-21.12,36.79-24.25,66.46l-15.12,141.01c-1.51,14.02,1.07,24.85,7.67,32.2,6.48,7.22,16.67,10.88,30.29,10.88h8.17c13.8,0,24.83-3.7,32.78-11,8.03-7.37,12.52-18.05,13.37-31.75l1.22-19.62c.33-3.88,2-5.48,5.77-5.48h10.22c2.09,0,4.92.61,5.37,5.93l1.22,19.17c1.7,27.17,18.52,42.75,46.14,42.75h8.17c13.61,0,23.8-3.66,30.29-10.88,6.6-7.35,9.18-18.19,7.67-32.2l-15.12-141.02c-3.12-29.66-11.05-51.4-24.24-66.45-14.89-17-36.09-25.26-64.81-25.26h0ZM1476.14,520.23c.51-5.51,2.62-5.51,3.32-5.51h.82c1.19,0,2.81,0,3.32,5.51l2.86,46.57v.03s0,.03,0,.03c.13,1.43-.23,2.66-1.05,3.55-.96,1.05-2.49,1.62-4.32,1.62h-2.45c-1.83,0-3.36-.58-4.32-1.62-.82-.89-1.18-2.12-1.05-3.55v-.03s0-.03,0-.03l2.86-46.57h0Z" class="cls-1"/>
        </g>
      </g>
    </g>
    <path d="M320.94,309.39l8.51-53.47,8.51,53.47c1.47,9.26,8.74,16.53,18,18l53.47,8.51-53.47,8.51c-9.26,1.47-16.53,8.74-18,18l-8.51,53.47-8.51-53.47c-1.47-9.26-8.74-16.53-18-18l-53.47-8.51,53.47-8.51c9.26-1.47,16.53-8.74,18-18Z" class="cls-8"/>
    <path d="M1619.45,719.78l8.51-53.47,8.51,53.47c1.47,9.26,8.74,16.53,18,18l53.47,8.51-53.47,8.51c-9.26,1.47-16.53,8.74-18,18l-8.51,53.47-8.51-53.47c-1.47-9.26-8.74-16.53-18-18l-53.47-8.51,53.47-8.51c9.26-1.47,16.53-8.74,18-18Z" class="cls-8"/>
    <polygon points="1674.47 582.04 1681.7 630.79 1730.45 638.03 1681.7 645.26 1674.47 694.01 1667.24 645.26 1618.49 638.03 1667.24 630.79 1674.47 582.04" class="cls-8"/>
    <path d="M524.17,461.59c-5.47-53.06-26.34-88.73-83.08-88.73s-77.61,35.68-83.08,88.73l-8.31,79.15c34.85-3.34,104.98-10.01,181-16.73l-6.53-62.42ZM442.53,513.67h-2.33c-6.01,0-11.53-3.01-12.18-9.65l2.76-45.47c-.1-13.73,6.77-15.13,9.87-15.13h.81c3.52,0,9.77,1.7,9.87,14.49l2.76,45.47c0,6.54-7.27,10.3-11.55,10.3Z" class="cls-12"/>
    <path d="M637.13,383.31v130.36c-27.99,2.22-47.84,5.66-76.37,8.1v-137.38c-.65-21.33,9.95-37.69,36.52-37.69h3.69c29.1,0,36.16,19.24,36.16,36.61Z" class="cls-2"/>
    <path d="M739.15,384.39v122.99c-25.86,1.64-46.21,3.73-76.96,6.13v-129.12c0-22.06,9.86-37.69,36.43-37.69h4.09c26.57,0,36.43,15.86,36.43,37.69Z" class="cls-4"/>
    <path d="M858.77,375.56h-56.38c-26.57,0-35.16,16.85-35.16,37.45v93.22c26.04-1.51,43.05-2.4,57.54-2.4,61.05,0,94.11-.28,99,8.69,16.82-6.4,22.05-22.6,21.77-54.95v-3.69c0-60.73-33.9-78.33-86.77-78.33ZM868.14,485.78c-.14,6.22-6.86,10.32-11.35,10.32h-1.24c-4.49,0-11.54-5.1-11.35-10.32v-26.17c-.19-10.61,6.89-13.38,11.38-13.38h1.24c4.49,0,11.19,3.76,11.33,13.38v26.17Z" class="cls-3"/>
    <path d="M945.54,575.71v22.48c0,.44,0,.89-.04,1.33-24.7-.4-42.48-1.38-61.36-3.11-7.29-.67-9.51-1.38-15.55-2.04v-35.01c0-2.8-.49-5.86-1.81-7.91,7.38-2.76,9.77-3.95,18.25-7.06,20.22-7.38,29-12.22,35.04-17.42.4.27.84.49,1.38.71,21.68,9.02,24.77,24.1,24.1,48.03Z" class="cls-5"/>
    <path d="M843.83,558.12c-.04.4-.09.8-.09,1.24v32.92c-52.83-7.86-40.97-17.91.09-34.17Z" class="cls-11"/>
    <path d="M1149.21,506.8v87c-26.44,1.51-43.59,2.75-68.78,3.73v-75.62c.33-10.14-7.34-12.85-11.83-12.85h-1.2c-4.53,0-12.04,2.25-11.81,12.85v76.2c-33.32,1.16-56.03,1.73-84.73,1.56v-92.86c-.99-54.37,27.05-86.34,85.48-86.34h7.38c58.43,0,85.49,32.17,85.49,86.34Z" class="cls-9"/>
    <path d="M1272.59,455.67h-56.43c-27.46,0-36.42,15.96-36.42,37.45v99.44c61.27-3.64,113.7-8.25,171.59-13.05,5.7-9.61,6.76-23.87,6.76-41.82v-3.69c0-59.06-32.73-78.32-85.5-78.32ZM1281.13,565.9c0,6.32-6.58,10.77-11.81,10.77h-1.2c-5.9,0-11.83-4.44-11.83-10.77v-26.17c.66-10.97,7.49-12.77,12.02-12.77h1.2c4.49,0,11.62,2.56,11.62,12.77v26.17Z" class="cls-7"/>
    <path d="M1566.25,559.54c-21.11,2.13-40.34,4.98-73.36,8.13l-2.84-46.56c-.53-11.45-6.09-12.95-9.78-12.95h-.8c-3.29,0-9.34,1.65-9.77,12.95l-2.84,46.56c-.04.58-.04,1.11.04,1.6-25.86,2.44-45.32,4.98-75.31,7.55l5.64-52.47c4.8-48.66,24.17-86.4,82.64-86.4s77,36.53,82.6,86.4l3.78,35.19Z" class="cls-10"/>
    <polygon points="249.42 363.97 256.65 412.72 305.41 419.95 256.65 427.19 249.42 475.94 242.19 427.19 193.44 419.95 242.19 412.72 249.42 363.97" class="cls-8"/>
  </g>
  <g id="Layer_2">
    <circle r="4" cy="583.7" cx="489.51" class="cls-6"/>
    <polygon points="374.95 559.4 378.19 568.16 386.95 571.4 378.19 574.64 374.95 583.4 371.71 574.64 362.96 571.4 371.71 568.16 374.95 559.4" class="cls-6"/>
    <polygon points="688.68 571.4 691.92 580.16 700.67 583.4 691.92 586.64 688.68 595.39 685.44 586.64 676.68 583.4 685.44 580.16 688.68 571.4" class="cls-6"/>
    <polygon points="789.27 528.75 792.51 537.51 801.27 540.75 792.51 543.99 789.27 552.74 786.03 543.99 777.27 540.75 786.03 537.51 789.27 528.75" class="cls-6"/>
    <polygon points="1008.76 638.03 1012 646.78 1020.75 650.02 1012 653.26 1008.76 662.02 1005.52 653.26 996.76 650.02 1005.52 646.78 1008.76 638.03" class="cls-6"/>
    <polygon points="1208 626.03 1211.24 634.79 1220 638.03 1211.24 641.27 1208 650.02 1204.76 641.27 1196 638.03 1204.76 634.79 1208 626.03" class="cls-6"/>
    <polygon points="1419.24 607.09 1422.48 615.84 1431.24 619.08 1422.48 622.32 1419.24 631.08 1416 622.32 1407.24 619.08 1416 615.84 1419.24 607.09" class="cls-6"/>
    <polygon points="1545.75 662.02 1548.99 670.78 1557.74 674.02 1548.99 677.26 1545.75 686.01 1542.51 677.26 1533.75 674.02 1542.51 670.78 1545.75 662.02" class="cls-6"/>
    <circle r="2.4" cy="614.73" cx="508.39" class="cls-6"/>
    <circle r="4" cy="553.08" cx="603.12" class="cls-6"/>
    <circle r="2.4" cy="582.22" cx="637.85" class="cls-6"/>
    <circle r="4" cy="528.5" cx="852.16" class="cls-6"/>
    <circle r="4" cy="618.73" cx="890.3" class="cls-6"/>
    <circle r="4" cy="618.73" cx="382.95" class="cls-6"/>
    <circle r="2.4" cy="603.53" cx="820.24" class="cls-6"/>
    <circle r="4" cy="536.5" cx="704.67" class="cls-6"/>
    <circle r="4" cy="629.13" cx="1118" class="cls-6"/>
    <circle r="4" cy="618.86" cx="1020.75" class="cls-6"/>
    <circle r="4" cy="674.43" cx="1223.99" class="cls-6"/>
    <circle r="2.4" cy="654.02" cx="1096.35" class="cls-6"/>
    <circle r="2.4" cy="610.08" cx="1268.91" class="cls-6"/>
    <circle r="4" cy="658.02" cx="1330.47" class="cls-6"/>
    <circle r="2.4" cy="682.43" cx="1316.84" class="cls-6"/>
    <circle r="4" cy="638.03" cx="1554.37" class="cls-6"/>
    <circle r="2.4" cy="612.89" cx="1467.25" class="cls-6"/>
    <circle r="2.4" cy="582.04" cx="1528.31" class="cls-6"/>
    <circle r="4" cy="669.62" cx="1419.24" class="cls-6"/>
    <circle r="4" cy="549.08" cx="508.39" class="cls-6"/>
    <circle r="2.4" cy="553.08" cx="449.64" class="cls-6"/>
  </g>
</svg>